<svg width="253" height="254" viewBox="0 0 253 254" fill="none" xmlns="http://www.w3.org/2000/svg">
<path d="M33.7522 39.9099C60.6262 11.6179 99.0242 -1.3801 137.534 0.8419C146.957 1.38961 160 2 168.5 6.5C279.888 48.442 281.968 209.654 166.79 247.09C164.2 247.932 161.528 248.41 158.956 249.314C118.756 259.332 78.9902 251.554 46.6182 224.734C42.0182 220.922 38.1882 216.36 33.7522 212.384C33.4162 210.956 23.1082 198.582 21.4482 196.072C-8.39779 150.928 -6.81578 89.2679 28.0182 46.9919C29.7502 44.8879 31.7842 42.8719 33.2942 40.6079L33.7522 39.9099Z" fill="#9333EA"/>
<path d="M172.002 53.6756C178.908 52.6116 187.154 59.2856 184.852 66.6336C182.17 75.1936 125.736 143.078 117.544 153.504C109.142 164.196 96.22 186.22 84.536 192.206C76.858 192.258 66.486 185.59 71.146 176.902C75.244 169.26 82.182 162.246 87.462 155.332C97.864 141.716 159.76 57.5396 172.002 53.6756Z" fill="#FEFEFE"/>
<path d="M173.246 118.708C218.498 118.788 221.604 187.776 175.784 192.206C125.098 191.454 125.758 122.156 173.246 118.708Z" fill="white"/>
<path d="M172.002 139.118C192.038 139.066 195.052 164.764 175.784 170.596C153.878 173.156 151.65 142.362 172.002 139.118Z" fill="#9333E9"/>
<path d="M81.1284 53.6761C88.6484 52.8421 97.4744 56.4281 103.526 60.6841C132.15 80.8181 120.098 122.772 84.5364 128.44C37.4484 130.768 29.3164 60.9101 81.1284 53.6761Z" fill="white"/>
<path d="M81.1281 75.5742C101.24 74.0842 104.49 100.534 85.4721 106.514C63.5381 108.776 60.5701 81.3562 81.1281 75.5742Z" fill="#9333E9"/>
</svg>
